# xmcd
#
# Track frame offsets:
#	150
#	19818
#	36034
#	52923
#	77268
#	93197
#	109687
#	123636
#	141768
#	158114
#	182641
#	196364
#
# Disc length: 2832 seconds
#
# Revision: 1
# Processed by: cddbd v1.5.2PL0 Copyright (c) Steve Scherf et al.
# Submitted via: FairStars CD Ripper 1.26
#
DISCID=8f0b0e0c
DTITLE=Terry Davidson and The Gears - Damnation Blues
DYEAR=2009
DGENRE=Rock
TTITLE0=Damnation Blues
TTITLE1=Rat Rod
TTITLE2=Devil's Prize
TTITLE3=High and Lonesome
TTITLE4=World's Last GTO
TTITLE5=Quittin' Time
TTITLE6=Three Angels
TTITLE7=Dog Crazy
TTITLE8=How Long Can This Go On
TTITLE9=Black Cat Boogie
TTITLE10=Little Abigail
TTITLE11=High Test Love
EXTD=
EXTT0=
EXTT1=
EXTT2=
EXTT3=
EXTT4=
EXTT5=
EXTT6=
EXTT7=
EXTT8=
EXTT9=
EXTT10=
EXTT11=
PLAYORDER=
